<?xml version="1.0" standalone="no"?>
<!DOCTYPE svg PUBLIC "-//W3C//DTD SVG 1.1//EN" "http://www.w3.org/Graphics/SVG/1.1/DTD/svg11.dtd" >
<svg xmlns="http://www.w3.org/2000/svg">
<metadata>
Created by FontPrep 20130207 at Fri May 13 11:35:03 2016
 By Callum Flack
Copyright (c) Laurenz Brunner. www.lineto.com, 2004. All rights reserved.
</metadata>
<defs>
<font id="c8ec35f4572575e3068c7f7fce656efe" horiz-adv-x='1024' >
  <font-face 
    font-family="Akkurat-Mono"
    font-weight="500"
    font-stretch="normal"
    units-per-em="2048"
    panose-1="0 0 0 0 0 0 0 0 0 0"
    ascent="1638"
    descent="-410"
    x-height="1034"
    cap-height="1452"
    bbox="-63 -592 1399 1939"
    underline-thickness="92"
    underline-position="-190"
    unicode-range="U+0020-00FF"
  />
<missing-glyph horiz-adv-x="1204" 
d="M870 152v1124h-536v-1124h536zM180 1430h844v-1430h-844v1430z" />
    <glyph glyph-name=".notdef" horiz-adv-x="1204" 
d="M870 152v1124h-536v-1124h536zM180 1430h844v-1430h-844v1430z" />
    <glyph glyph-name=".null" horiz-adv-x="0" 
 />
    <glyph glyph-name="nonmarkingreturn" horiz-adv-x="681" 
 />
    <glyph glyph-name="space" unicode=" " 
 />
    <glyph glyph-name="exclam" unicode="!" 
d="M778 0h-286v293h286v-293zM526 1452h215v-418l-45 -594h-123l-47 594v418z" />
    <glyph glyph-name="quotedbl" unicode="&#x22;" 
d="M328 1452h233v-281l-45 -342h-145l-43 342v281zM709 1452h233v-281l-43 -342h-145l-45 342v281z" />
    <glyph glyph-name="numbersign" unicode="#" 
d="M520 895l-47 -365h283l49 365h-285zM1147 530v-137h-273l-51 -391h-141l53 391h-282l-54 -391h-139l53 391h-247v137h268l49 365h-250v139h270l54 389h137l-51 -389h282l54 389h139l-53 -389h249v-139h-270l-47 -365h250z" />
    <glyph glyph-name="dollar" unicode="$" 
d="M993 389q0 203 -239 240l-45 6v-492q133 10 209 80t75 166zM336 1054q0 -94 60 -144t153 -62q27 0 45 -6v467q-125 -12 -203 -99q-55 -63 -55 -156zM1184 403q0 -167 -126 -289t-349 -139v-153h-115v153q-219 14 -350 138q-156 145 -156 348h191q0 -131 102 -230
q74 -70 213 -88v510l-64 11q-174 26 -278 122t-104 264t127 290q128 122 319 137v159h115v-161q184 -15 313 -139t135 -308h-190q-6 106 -72 183t-186 96v-484q49 -8 75 -12q184 -27 292 -135t108 -273z" />
    <glyph glyph-name="percent" unicode="%" 
d="M1073 299q0 78 -52 131t-128 53t-125 -53t-49 -131t49 -133t125 -55t128 55t52 133zM1214 296q0 -138 -94 -227t-225 -89t-221 91t-90 227t84 226t224 90t231 -90t91 -228zM1169 1034l-987 -723l-69 101l987 723zM528 1151q0 78 -52 131t-128 53t-125 -53t-49 -131
t49 -133t125 -55t128 55t52 133zM347 1468q139 0 231 -91t92 -229t-94 -227t-226 -89q-131 0 -221 90q-90 92 -90 228t84 227t224 91z" />
    <glyph glyph-name="ampersand" unicode="&#x26;" 
d="M225 383q0 -121 81 -185t175 -63q210 0 314 131l-363 404q-14 -10 -38 -28t-38 -28q-55 -36 -93 -102t-38 -129zM705 1133q1 80 -55 138t-139 58t-138 -57t-55 -143t73 -166q57 -66 86 -97l119 76q109 70 109 191zM492 -27q-186 0 -312 110t-127 296q-1 99 59 201
t150 159q10 7 30 23t34 24l-72 86q-106 128 -106 264t98 239q100 103 265 103t263 -94q98 -96 98 -249q0 -190 -182 -318q-66 -49 -100 -69l301 -340q30 55 41 146q10 91 10 137v138h291v-149h-127q0 -108 -27 -222t-73 -182l245 -276h-219l-125 141q-71 -80 -185 -124
t-230 -44z" />
    <glyph glyph-name="quotesingle" unicode="'" 
d="M518 1452h234v-281l-43 -342h-146l-45 342v281z" />
    <glyph glyph-name="parenleft" unicode="(" 
d="M596 660q0 -478 301 -875l-109 -76q-164 185 -254 441q-179 514 1 1019q90 256 253 441l109 -76q-301 -396 -301 -874z" />
    <glyph glyph-name="parenright" unicode=")" 
d="M825 659q0 -253 -90 -509t-254 -441l-108 76q301 397 301 874t-301 875l108 76q164 -184 254 -440t90 -511z" />
    <glyph glyph-name="asterisk" unicode="*" 
d="M1069 1049l-326 -84l213 -265l-137 -98l-184 285l-182 -285l-138 103l213 260l-325 84l53 161l313 -123l-16 338h170l-21 -338l316 123z" />
    <glyph glyph-name="plus" unicode="+" 
d="M1200 549h-493v-539h-144v539h-491v141h491v506h144v-506h493v-141z" />
    <glyph glyph-name="comma" unicode="," 
d="M791 0q1 -146 -55 -244t-191 -153l-66 118q96 41 130 103t34 176h-162v305h310v-305z" />
    <glyph glyph-name="hyphen" unicode="-" 
d="M1001 537h-731v161h731v-161z" />
    <glyph glyph-name="period" unicode="." 
d="M786 -2h-303v309h303v-309z" />
    <glyph glyph-name="slash" unicode="/" 
d="M1194 1479l-979 -1506h-149l978 1506h150z" />
    <glyph glyph-name="zero" unicode="0" 
d="M930 724q0 144 -6 216l-529 -653q77 -156 240 -156q195 0 260 215q29 96 32 165t3 213zM340 687q0 -158 6 -216l535 655q-75 170 -246 168q-196 0 -260 -215q-29 -96 -32 -165t-3 -227zM1110 713q0 -229 -34 -373t-134 -246q-121 -121 -307 -121q-187 -1 -297 111
t-144 256t-34 372q0 230 34 374t144 255t297 111t297 -110t144 -256q34 -144 34 -373z" />
    <glyph glyph-name="one" unicode="1" 
d="M1161 0h-948v160h387v1065l-385 -232v187l393 243h168v-1263h385v-160z" />
    <glyph glyph-name="two" unicode="2" 
d="M1083 0h-866v150l588 710q78 92 78 203q1 111 -63 171t-174 60t-180 -63q-71 -63 -71 -195h-180q0 186 119 301t307 115q238 0 354 -164q66 -94 66 -234t-121 -290l-496 -600h639v-164z" />
    <glyph glyph-name="three" unicode="3" 
d="M1077 389q1 -172 -115 -294t-332 -122t-338 124q-124 124 -126 311h178q6 -127 77 -202t203 -75t204 78q71 79 71 195t-82 185t-217 68h-92v162h92q123 0 196 65q72 65 72 170t-68 173q-68 67 -178 67t-187 -62t-81 -196h-178q2 204 132 310t318 106t308 -115
q115 -104 115 -278q-1 -101 -61 -193t-148 -129q111 -37 174 -135t63 -213z" />
    <glyph glyph-name="four" unicode="4" 
d="M1155 303h-192v-303h-177v303h-673v189l561 931h188l-577 -962h501v424h177v-424h192v-158z" />
    <glyph glyph-name="five" unicode="5" 
d="M680 940q200 0 321 -125t121 -348t-123 -359t-333 -136t-337 121q-126 122 -134 317h174q6 -127 82 -203t213 -76q138 0 210 92t72 241t-78 235t-206 85q-166 0 -242 -125h-195l39 764h787v-157h-637l-23 -455q89 129 289 129z" />
    <glyph glyph-name="six" unicode="6" 
d="M961 454q1 150 -79 239t-210 89t-209 -90q-80 -90 -80 -234t84 -236t208 -91q124 0 205 87q81 86 81 236zM1137 472q0 -216 -129 -357t-344 -142q-113 1 -204 51t-149 128q-127 176 -127 542t124 562t364 196q186 0 298 -112t117 -261h-176q-7 99 -75 157t-178 58
t-189 -92q-104 -119 -109 -430q33 72 127 119t199 47q190 0 305 -111q146 -139 146 -355z" />
    <glyph glyph-name="seven" unicode="7" 
d="M166 1266v157h954v-157l-598 -1266h-188l598 1266h-766z" />
    <glyph glyph-name="eight" unicode="8" 
d="M635 127q127 1 209 75t82 194t-79 195t-212 75t-212 -75t-79 -195t82 -194t209 -75zM635 817q119 0 191 72t71 176q0 104 -76 169q-77 64 -187 64t-186 -64t-75 -169q-1 -104 71 -176t191 -72zM1102 372q0 -134 -94 -243q-131 -156 -373 -156t-373 156q-94 111 -94 244
t61 228t162 140q-88 47 -141 133t-53 189q1 165 121 277t317 112t317 -113t121 -276q0 -103 -53 -189t-141 -133q99 -45 161 -140t62 -229z" />
    <glyph glyph-name="nine" unicode="9" 
d="M911 969q0 147 -83 236q-82 89 -208 89t-207 -87t-81 -236t79 -239t211 -89q132 -1 210 89t79 237zM1106 731q0 -375 -119 -565q-55 -86 -151 -139t-226 -54q-188 0 -299 113t-116 260h176q5 -96 73 -156t182 -59q114 0 191 86q109 123 113 436q-33 -73 -127 -119
t-197 -47q-190 0 -305 111q-145 140 -145 356t129 357t344 141q113 0 205 -50t149 -126q123 -170 123 -545z" />
    <glyph glyph-name="colon" unicode=":" 
d="M780 -2h-291v297h291v-297zM780 739h-291v297h291v-297z" />
    <glyph glyph-name="semicolon" unicode=";" 
d="M791 -2q1 -146 -55 -244t-191 -153l-66 118q96 41 130 103t34 176h-154v297h302v-297zM780 739h-291v297h291v-297z" />
    <glyph glyph-name="less" unicode="&#x3c;" 
d="M973 1221l-578 -568l576 -563l-119 -121l-676 684l678 688z" />
    <glyph glyph-name="equal" unicode="=" 
d="M1128 274h-987v162h987v-162zM1128 700h-987v162h987v-162z" />
    <glyph glyph-name="greater" unicode="&#x3e;" 
d="M1092 653l-676 -684l-119 121l575 563l-575 568l117 120z" />
    <glyph glyph-name="question" unicode="?" 
d="M760 0h-268v274h268v-274zM1073 1096q0 -215 -221 -377q-92 -68 -119 -124t-26 -157v-45h-168v51q0 154 48 234t177 179t129 241q0 90 -66 160q-65 70 -189 69q-124 0 -197 -84t-72 -209h-185q0 186 122 318t320 133q198 -1 322 -107q125 -106 125 -282z" />
    <glyph glyph-name="at" unicode="@" 
d="M997 668q0 108 -46 182q-46 76 -146 76q-101 0 -153 -78t-52 -181t48 -181t144 -76q96 0 151 75q54 75 54 183zM1147 291h-119l-29 90q-69 -117 -227 -117t-247 115t-89 293t111 297q89 94 239 94q48 1 108 -19t87 -61q0 154 -91 248t-253 94t-258 -123t-96 -299v-465
q0 -182 101 -303t286 -121q145 0 264 56v-146q-109 -63 -262 -63q-252 0 -402 165t-149 406v475q0 233 144 403q145 170 375 169q230 1 368 -141t139 -369v-678z" />
    <glyph glyph-name="A" unicode="A" 
d="M862 547l-231 719l-225 -719h456zM1225 0h-189l-121 375h-563l-119 -375h-186l477 1452h221z" />
    <glyph glyph-name="B" unicode="B" 
d="M700 168q129 0 207 60t78 184q0 122 -81 192t-206 70h-307v-506h309zM952 1059q0 113 -75 172q-76 59 -187 59h-299v-456h303q119 0 189 56q69 56 69 169zM1171 406q1 -164 -113 -285t-358 -121h-487v1452h487q229 0 349 -127q90 -96 90 -248q1 -109 -55 -197t-154 -124
q111 -37 176 -135t65 -215z" />
    <glyph glyph-name="C" unicode="C" 
d="M661 1479q213 1 363 -135t158 -347h-191q-6 123 -84 205q-94 104 -239 104t-252 -110q-55 -57 -83 -147q-28 -89 -32 -151t-4 -173t4 -172t32 -151t83 -148q106 -111 246 -111t235 90q96 90 98 230h189q-8 -211 -159 -351t-365 -140t-373 155q-111 109 -145 252t-33 346
q0 203 33 346q34 143 145 252q160 156 374 156z" />
    <glyph glyph-name="D" unicode="D" 
d="M985 730q0 171 -20 280t-88 178q-92 96 -269 96h-250v-1116h250q178 0 275 102q66 70 84 180t18 280zM1171 724q0 -345 -100 -505q-135 -219 -463 -219h-432v1452h432q326 0 465 -225q98 -158 98 -503z" />
    <glyph glyph-name="E" unicode="E" 
d="M1165 0h-960v1452h960v-168h-778v-442h588v-172h-588v-502h778v-168z" />
    <glyph glyph-name="F" unicode="F" 
d="M1198 1284h-790v-473h626v-172h-626v-639h-183v1452h973v-168z" />
    <glyph glyph-name="G" unicode="G" 
d="M1155 0h-127l-31 164q-41 -70 -141 -132t-227 -61q-229 0 -371 140q-190 184 -190 604t196 614q152 150 382 150t378 -166q109 -121 117 -281h-191q-6 109 -89 192t-227 83t-243 -101q-135 -139 -135 -487t127 -477q53 -55 109 -77t137 -22q145 0 241 97q117 115 117 372
h-375v170h543v-782z" />
    <glyph glyph-name="H" unicode="H" 
d="M1128 0h-186v670h-616v-670h-185v1452h185v-606h616v606h186v-1452z" />
    <glyph glyph-name="I" unicode="I" 
d="M1049 0h-828v152h322v1151h-322v149h828v-149h-322v-1151h322v-152z" />
    <glyph glyph-name="J" unicode="J" 
d="M1010 410q0 -184 -122 -310t-320 -127q-198 0 -324 130t-125 337h184q0 -150 94 -237q63 -59 181 -59t184 71q66 72 65 195v1042h183v-1042z" />
    <glyph glyph-name="K" unicode="K" 
d="M356 0h-184v1452h184v-745l654 745h225l-504 -573l506 -879h-215l-420 731l-246 -280v-451z" />
    <glyph glyph-name="L" unicode="L" 
d="M1204 0h-932v1452h183v-1282h749v-170z" />
    <glyph glyph-name="M" unicode="M" 
d="M1145 0h-176v1145l-252 -705h-164l-252 701v-1141h-176v1452h225l289 -811l283 811h223v-1452z" />
    <glyph glyph-name="N" unicode="N" 
d="M1126 0h-223l-581 1167v-1167h-179v1452h228l579 -1173v1173h176v-1452z" />
    <glyph glyph-name="O" unicode="O" 
d="M636 1305q-146 0 -253 -111q-86 -86 -100 -217q-15 -131 -15 -234q0 -281 47 -389q25 -55 68 -98q105 -111 251 -111t253 111q84 84 99 211t15 258q0 130 -15 257q-15 126 -99 212q-105 111 -251 111zM1190 725q0 -207 -34 -349t-142 -247q-162 -158 -379 -158t-379 158
q-108 105 -142 247t-34 349t34 349t142 247q162 158 379 158t379 -158q108 -105 142 -247t34 -349z" />
    <glyph glyph-name="P" unicode="P" 
d="M715 729q149 0 231 71t82 209t-87 208t-228 69h-336v-557h338zM717 1452q260 0 380 -130t120 -320t-125 -314q-125 -125 -373 -125h-342v-563h-182v1452h522z" />
    <glyph glyph-name="Q" unicode="Q" 
d="M986 982q-15 126 -99 212q-105 111 -251 111t-253 -111q-86 -86 -100 -217q-15 -131 -15 -234q0 -281 47 -389q25 -55 68 -98q106 -111 252 -111q88 0 160 41l-170 220l118 92l168 -213q43 57 65 145t24 138t1 169q0 119 -15 245zM1190 727q0 -205 -33 -344t-133 -244
l137 -176l-121 -94l-135 176q-123 -74 -270 -74q-217 0 -379 158q-108 105 -142 247t-34 349t34 349t142 247q162 158 379 158t379 -158q108 -105 142 -247t34 -347z" />
    <glyph glyph-name="R" unicode="R" 
d="M682 774q295 0 295 255t-295 255h-315v-510h315zM367 604v-604h-183v1452h498q244 0 364 -125t120 -297t-111 -289q-63 -68 -174 -102l290 -639h-198l-275 604h-331z" />
    <glyph glyph-name="S" unicode="S" 
d="M1169 401q0 -168 -120 -284q-145 -143 -409 -143t-414 138q-151 140 -150 347h190q0 -133 96 -225t274 -93q179 0 261 76t82 172q0 203 -240 240q-106 16 -223 35q-174 26 -278 122t-104 264t122 285q154 143 380 143t362 -130t143 -318h-191q-6 104 -69 178
q-90 102 -252 102t-252 -102q-55 -66 -55 -156t60 -142q60 -50 131 -59t157 -23t100 -17q184 -27 292 -134q107 -108 107 -276z" />
    <glyph glyph-name="T" unicode="T" 
d="M1221 1282h-492v-1282h-186v1282h-494v170h1172v-170z" />
    <glyph glyph-name="U" unicode="U" 
d="M1143 528q0 -254 -130 -404t-379 -151q-249 0 -379 152t-130 403v924h182v-926q0 -381 328 -381q170 1 248 103t78 278v926h182v-924z" />
    <glyph glyph-name="V" unicode="V" 
d="M1194 1452l-451 -1452h-217l-450 1452h194l369 -1241l362 1241h193z" />
    <glyph glyph-name="W" unicode="W" 
d="M1196 1452l-100 -1452h-219l-242 801l-236 -801h-221l-100 1452h172l74 -1184l229 768h170l229 -766l72 1182h172z" />
    <glyph glyph-name="X" unicode="X" 
d="M1202 0h-207l-364 590l-361 -590h-202l460 733l-460 719h208l363 -567l358 567h203l-459 -719z" />
    <glyph glyph-name="Y" unicode="Y" 
d="M727 0h-184v590l-498 862h205l391 -694l389 694h195l-498 -862v-590z" />
    <glyph glyph-name="Z" unicode="Z" 
d="M1155 0h-1012v182l799 1100h-786v170h993v-184l-801 -1098h807v-170z" />
    <glyph glyph-name="bracketleft" unicode="[" 
d="M952 -233h-467v1783h467v-127h-325v-1529h325v-127z" />
    <glyph glyph-name="backslash" unicode="\" 
d="M1200 -27h-149l-979 1506h149z" />
    <glyph glyph-name="bracketright" unicode="]" 
d="M784 -233h-467v127h324v1529h-324v127h467v-1783z" />
    <glyph glyph-name="asciicircum" unicode="^" 
d="M1059 831h-189l-233 455l-238 -455h-186l346 650h158z" />
    <glyph glyph-name="underscore" unicode="_" 
d="M1143 -162h-1014v162h1014v-162z" />
    <glyph glyph-name="grave" unicode="`" 
d="M868 1223l-73 -101l-394 240l107 149z" />
    <glyph glyph-name="a" unicode="a" 
d="M348 300q0 -179 222 -179q120 0 207 89t87 228v62l-286 -17q-94 -6 -162 -53t-68 -130zM528 -27q-174 -1 -266 91t-92 218t93 225t278 109l323 19v76q0 100 -58 154q-58 55 -176 55t-174 -56t-63 -129h-172q2 119 96 213q115 115 320 115q143 0 236 -56q93 -57 129 -139
t34 -163v-502q0 -70 62 -70l45 6v-129q-49 -24 -116 -24t-109 45t-44 112h-4q-45 -78 -138 -124t-204 -46z" />
    <glyph glyph-name="b" unicode="b" 
d="M973 513q0 208 -111 318q-80 80 -184 80t-180 -67q-117 -102 -117 -326t117 -325q76 -68 186 -68t182 74q107 106 107 314zM1151 524q0 -276 -152 -432q-115 -119 -299 -119q-92 0 -183 43t-134 119l-12 -135h-154v1479h174v-564q43 66 128 107t181 41q172 0 293 -113
q158 -150 158 -426z" />
    <glyph glyph-name="c" unicode="c" 
d="M651 1063q190 0 308 -114t128 -263h-176q-10 88 -81 157q-72 69 -180 69t-189 -74q-113 -102 -113 -318t113 -319q84 -76 191 -76t177 65q74 74 84 160h174q-10 -150 -128 -264q-119 -114 -309 -113q-190 0 -320 127q-160 158 -160 418t160 418q131 127 321 127z" />
    <glyph glyph-name="d" unicode="d" 
d="M897 518q0 225 -117 328q-74 66 -180 66t-184 -81q-111 -111 -111 -317t109 -315q74 -74 183 -74t183 65q117 103 117 328zM1061 0h-154l-12 135q-43 -76 -134 -119t-183 -43q-184 0 -302 121q-150 154 -150 426t161 426q125 117 295 117q96 0 179 -41t126 -107v564h174
v-1479z" />
    <glyph glyph-name="e" unicode="e" 
d="M633 913q-127 0 -206 -99t-83 -208h584q-4 135 -86 221t-209 86zM1112 463h-774q0 -162 104 -260q82 -78 197 -78t185 55t94 131h167q-37 -158 -157 -248t-298 -90q-177 0 -324 144q-146 143 -146 399t153 414q133 133 331 133t319 -125q150 -154 149 -414v-61z" />
    <glyph glyph-name="f" unicode="f" 
d="M653 1036h451v-147h-451v-889h-176v889h-342v147h342v121q0 156 96 249q95 93 247 93t276 -51v-162q-120 60 -230 60t-161 -52t-52 -137v-121z" />
    <glyph glyph-name="g" unicode="g" 
d="M334 -154q0 -180 330 -180q211 0 284 74q47 47 47 96t-12 79t-40 47t-60 33t-195 15h-223q-55 -18 -93 -62t-38 -102zM877 695q0 99 -67 163q-68 64 -176 64t-174 -64t-67 -162q0 -100 69 -167t173 -67t173 68q69 66 69 165zM1165 -152q0 -121 -88 -208
q-125 -123 -415 -123t-408 118q-78 77 -78 169q0 172 148 247q-53 19 -86 67t-33 107q0 133 141 201q-121 100 -121 258t107 268q107 111 305 111q141 0 242 -62q27 68 84 107t131 39q18 0 51 -4v-142q-73 15 -115 -18q-43 -33 -53 -74q70 -90 70 -223t-95 -237
q-115 -125 -315 -125q-84 0 -180 32q-33 -10 -61 -36t-29 -60q-4 -59 42 -81t111 -21h228q231 0 337 -109q80 -80 80 -201z" />
    <glyph glyph-name="h" unicode="h" 
d="M1079 0h-176v657q0 248 -235 248q-74 0 -136 -44t-99 -126q-38 -82 -38 -258v-477h-176v1481h176v-582q45 76 134 120t182 44q176 0 272 -100t96 -281v-682z" />
    <glyph glyph-name="i" unicode="i" 
d="M1155 0h-928v150h375v739h-334v147h510v-886h377v-150zM805 1233h-248v246h248v-246z" />
    <glyph glyph-name="j" unicode="j" 
d="M889 1233h-246v246h246v-246zM688 -86v975h-412v147h588v-1134q0 -146 -89 -242t-239 -96t-260 49v156q120 -51 220 -51t146 54t46 142z" />
    <glyph glyph-name="k" unicode="k" 
d="M440 0h-174v1481h174v-965l496 520h231l-395 -411l410 -625h-205l-326 500l-211 -219v-281z" />
    <glyph glyph-name="l" unicode="l" 
d="M1116 0h-903v147h365v1186h-334v146h510v-1332h362v-147z" />
    <glyph glyph-name="m" unicode="m" 
d="M1190 0h-172v735q0 174 -125 174q-49 0 -103 -55t-55 -242v-612h-164v723q0 186 -135 186q-162 0 -162 -276v-633h-172v1036h142l16 -100q29 55 87 91t135 36t132 -43t74 -94q82 137 244 137q126 0 192 -82t66 -197v-784z" />
    <glyph glyph-name="n" unicode="n" 
d="M1079 0h-178v657q0 248 -227 248q-74 0 -136 -46t-102 -132t-41 -254v-473h-176v1036h154l14 -155q45 86 136 134t188 48q176 0 272 -100t96 -281v-682z" />
    <glyph glyph-name="o" unicode="o" 
d="M944 518q0 213 -117 320q-83 74 -193 74t-192 -74q-116 -106 -116 -320t116 -319q82 -74 193 -74t192 74q117 106 117 319zM1122 518q0 -260 -161 -420q-129 -125 -326 -125t-326 125q-162 160 -162 420t162 420q129 125 326 125t326 -125q161 -160 161 -420z" />
    <glyph glyph-name="p" unicode="p" 
d="M973 518q0 209 -107 316q-78 78 -185 78t-183 -68q-117 -102 -117 -326t117 -328q74 -66 182 -66t184 77q109 108 109 317zM1151 508q0 -274 -158 -424q-121 -113 -293 -113q-96 0 -181 41t-128 107v-543h-174v1460h154l12 -137q43 76 134 119t183 43q180 0 299 -123
q152 -156 152 -430z" />
    <glyph glyph-name="q" unicode="q" 
d="M897 516q0 223 -117 326q-76 68 -180 68t-184 -81q-111 -111 -111 -313t111 -313q80 -80 184 -80t180 67q117 103 117 326zM1061 -424h-174v543q-43 -66 -126 -107t-179 -41q-170 0 -295 117q-160 154 -160 424t152 426q119 123 299 123q92 0 183 -43t134 -119l12 137
h154v-1460z" />
    <glyph glyph-name="r" unicode="r" 
d="M1163 686h-178q0 90 -58 155q-57 65 -147 65t-154 -51q-142 -110 -143 -394v-461h-176v1036h154l14 -155q47 90 136 136t192 46q188 0 295 -152q65 -96 65 -225z" />
    <glyph glyph-name="s" unicode="s" 
d="M1081 301q0 -121 -82 -207q-119 -121 -352 -121t-356 121q-102 98 -103 240h174q2 -94 91 -160q69 -51 201 -51t202 59q51 41 51 107q0 121 -153 143l-265 39q-119 18 -190 96q-61 73 -61 183t84 194q116 119 332 119t325 -139q66 -84 72 -197h-174q-2 76 -66 132
q-65 56 -175 56t-171 -49t-62 -110q0 -106 138 -129l280 -43q104 -16 182 -89t78 -194z" />
    <glyph glyph-name="t" unicode="t" 
d="M779 -23q-161 -1 -245 95t-85 233v582h-324v149h324v269l174 55v-324h434v-149h-434v-565q0 -86 48 -136q49 -50 147 -51q98 0 251 70v-154q-129 -74 -290 -74z" />
    <glyph glyph-name="u" unicode="u" 
d="M1055 0h-154l-14 156q-37 -84 -130 -133t-188 -50q-164 1 -264 105t-100 276v682h176v-657q0 -248 229 -248q111 0 190 87t79 216v602h176v-1036z" />
    <glyph glyph-name="v" unicode="v" 
d="M1145 1034l-404 -1034h-206l-410 1034h190l330 -862l318 862h182z" />
    <glyph glyph-name="w" unicode="w" 
d="M1184 1034l-144 -1034h-209l-196 584l-199 -584h-207l-141 1034h166l106 -825l193 557h164l194 -555l109 823h164z" />
    <glyph glyph-name="x" unicode="x" 
d="M1137 0h-213l-293 412l-291 -412h-209l383 528l-381 508h215l291 -389l279 389h208l-376 -508z" />
    <glyph glyph-name="y" unicode="y" 
d="M377 -436q-119 0 -187 39v149q82 -31 150 -31q117 0 158 105l69 174l-452 1036h215l334 -823l309 823h198l-507 -1249q-90 -223 -287 -223z" />
    <glyph glyph-name="z" unicode="z" 
d="M1069 0h-852v154l633 729h-633v151h846v-153l-631 -729h637v-152z" />
    <glyph glyph-name="braceleft" unicode="{" 
d="M942 -244h-55q-174 0 -247 86t-73 262v320q0 137 -207 156v147q78 10 143 50t64 110v315q0 184 69 267t251 83h53v-129h-53q-103 0 -141 -49t-37 -160v-329q0 -184 -193 -221v-5q86 -20 139 -76t54 -141v-329q0 -227 180 -228h53v-129z" />
    <glyph glyph-name="bar" unicode="|" 
d="M715 -233h-160v1783h160v-1783z" />
    <glyph glyph-name="braceright" unicode="}" 
d="M702 424v-320q0 -176 -72 -262t-247 -86h-55v129h53q180 0 180 228v329q0 84 53 140t140 77v5q-193 37 -193 221v329q0 111 -37 160t-141 49h-53v129h53q182 0 251 -83t68 -267v-315q0 -70 65 -110t142 -50v-147q-207 -18 -207 -156z" />
    <glyph glyph-name="asciitilde" unicode="~" 
d="M826 477q-86 -1 -214 61t-177 62q-50 0 -94 -18t-105 -82l-101 114q90 94 156 127q67 33 143 33t134 -22t137 -59q80 -36 131 -37q51 0 94 18t104 80l103 -117q-92 -94 -158 -127q-67 -33 -153 -33z" />
    <glyph glyph-name="Euro" 
d="M822 -27q-228 0 -390 166q-141 143 -172 367h-162v125h152q-2 27 -2 81t2 81h-152v125h162q31 225 172 368q162 166 390 166t384 -119l-67 -147q-131 102 -304 102t-286 -125q-82 -90 -107 -245h574l-55 -125h-529q-2 -27 -2 -81t2 -81h471l-55 -125h-406
q20 -150 107 -244q113 -125 286 -125t304 103l67 -148q-156 -119 -384 -119z" />
    <glyph glyph-name="quotesinglbase" 
d="M791 -2q1 -146 -55 -244t-191 -153l-66 118q96 41 130 103t34 176h-154v297h302v-297z" />
    <glyph glyph-name="florin" 
d="M1038 895v-154h-319l-137 -694q-27 -129 -111 -206t-178 -77t-168 17v153q86 -12 119 -12q137 0 174 182l127 637h-209v154h239l58 293q27 129 110 206q85 76 179 76t168 -16v-154q-86 12 -119 13q-137 0 -174 -183l-47 -235h288z" />
    <glyph glyph-name="quotedblbase" 
d="M575 -2q0 -150 -55 -246t-188 -151l-66 118q96 41 130 103t34 176h-154v297h299v-297zM1004 -2q0 -146 -56 -244t-190 -153l-64 118q96 41 129 103t33 176h-154v297h302v-297z" />
    <glyph glyph-name="ellipsis" unicode="&#x85;" 
d="M336 0h-242v244h242v-244zM752 0h-242v244h242v-244zM1176 0h-244v244h244v-244z" />
    <glyph glyph-name="dagger" 
d="M1102 887h-381v-1143h-170v1143h-383v149h383v416h170v-416h381v-149z" />
    <glyph glyph-name="daggerdbl" 
d="M1102 160h-383v-416h-168v416h-383v149h383v578h-383v149h383v416h168v-416h383v-149h-383v-578h383v-149z" />
    <glyph glyph-name="circumflex" 
d="M967 1221l-101 -88l-231 245l-232 -245l-100 88l272 290h119z" />
    <glyph glyph-name="perthousand" 
d="M686 244q0 61 -40 103t-100 42t-100 -42t-38 -103q0 -61 38 -106q40 -44 100 -44t100 44t40 106zM1090 244q0 61 -41 103t-101 42t-100 -42q-39 -42 -39 -103q0 -62 39 -106t99 -44t102 44q41 45 41 106zM942 504q122 0 196 -74t74 -188q0 -113 -78 -188
q-78 -74 -194 -74q-117 0 -190 94q-78 -94 -194 -94t-194 75q-76 76 -76 188q0 113 72 187q70 74 191 74t199 -88q72 88 194 88zM1092 1110l-988 -723l-69 100l987 723zM496 1194q0 61 -41 103t-101 42t-98 -42q-39 -42 -39 -103t39 -105q39 -45 98 -45q58 0 100 44t42 106z
M98 1194q0 112 70 186t186 74t190 -74t74 -188t-78 -188t-184 -74q-108 0 -183 76t-75 188z" />
    <glyph glyph-name="Scaron" 
d="M1169 401q0 -168 -120 -284q-145 -143 -409 -143t-414 138q-151 140 -150 347h190q0 -133 96 -225t274 -93q179 0 261 76t82 172q0 203 -240 240q-106 16 -223 35q-174 26 -278 122t-104 264t122 285q154 143 380 143t362 -130t143 -318h-191q-6 104 -69 178
q-90 102 -252 102t-252 -102q-55 -66 -55 -156t60 -142q60 -50 131 -59t157 -23t100 -17q184 -27 292 -134q107 -108 107 -276zM948 1823l-256 -269h-112l-256 269l92 92l221 -236l219 236z" />
    <glyph glyph-name="guilsinglleft" 
d="M848 221l-111 -82l-336 471l336 471l109 -77l-228 -392z" />
    <glyph glyph-name="OE" 
d="M602 1280q-150 0 -252 -106q-55 -58 -82 -142q-26 -84 -30 -142q-11 -188 -4 -289q18 -227 117 -328t251 -101v1108zM600 0q-221 0 -377 150q-111 106 -143 242q-33 136 -33 332t34 332t144 242q158 154 375 154h655v-168h-473v-444h320v-168h-320v-506h473v-166h-655z
" />
    <glyph glyph-name="Zcaron" 
d="M1155 0h-1012v182l799 1100h-786v170h993v-184l-801 -1098h807v-170zM948 1812l-256 -268h-112l-256 268l92 93l221 -236l219 236z" />
    <glyph glyph-name="quoteleft" 
d="M629 1083h153v-297h-301v297q-1 147 55 245t191 153l64 -119q-96 -41 -129 -102t-33 -177z" />
    <glyph glyph-name="quoteright" 
d="M791 1155q1 -150 -55 -247t-191 -152l-64 118q96 42 129 104t33 177h-151v297h299v-297z" />
    <glyph glyph-name="quotedblleft" 
d="M567 1083v-297h-301v297q0 147 56 245t190 153l63 -119q-96 -41 -129 -102t-32 -177h153zM993 1083v-297h-301v297q0 147 56 245t190 153l66 -119q-96 -41 -130 -102t-34 -177h153z" />
    <glyph glyph-name="quotedblright" 
d="M575 1153q0 -147 -55 -245t-190 -152l-64 118q96 40 129 102t33 177h-152v299h299v-299zM1004 1153q0 -147 -56 -245t-190 -152l-66 118q96 40 130 102t34 177h-154v299h302v-299z" />
    <glyph glyph-name="bullet" 
d="M913 596q0 -115 -82 -197q-83 -82 -197 -82t-196 82t-82 197t82 197q82 81 197 81t197 -82t81 -196z" />
    <glyph glyph-name="endash" 
d="M1145 537h-1018v161h1018v-161z" />
    <glyph glyph-name="emdash" 
d="M1229 537h-1188v161h1188v-161z" />
    <glyph glyph-name="tilde" 
d="M770 1208q-76 0 -154 44t-114 44t-64 -11q-27 -11 -71 -56l-88 100q73 73 121 95t107 22t141 -45t132 -45q51 0 123 69l88 -100q-117 -117 -221 -117z" />
    <glyph glyph-name="trademark" 
d="M526 1335h-196v-608h-125v608h-197v113h518v-113zM1182 727h-125v545l-115 -303h-92l-115 303v-545h-127v721h168l121 -311l119 311h166v-721z" />
    <glyph glyph-name="scaron" 
d="M1081 301q0 -121 -82 -207q-119 -121 -352 -121t-356 121q-102 98 -103 240h174q2 -94 91 -160q69 -51 201 -51t202 59q51 41 51 107q0 121 -153 143l-265 39q-119 18 -190 96q-61 73 -61 183t84 194q116 119 332 119t325 -139q66 -84 72 -197h-174q-2 76 -66 132
q-65 56 -175 56t-171 -49t-62 -110q0 -106 138 -129l280 -43q104 -16 182 -89t78 -194zM924 1374l-230 -241h-102l-230 241l82 82l201 -211l197 211z" />
    <glyph glyph-name="guilsinglright" 
d="M848 610l-336 -471l-111 82l230 391l-228 392l109 77z" />
    <glyph glyph-name="oe" 
d="M260 521q0 -146 76 -258t217 -132v782q-141 -20 -217 -133t-76 -259zM721 606h299q-4 125 -85 213t-214 94v-307zM721 463v-336q94 2 171 47t101 135h164q-37 -203 -252 -291q-111 -45 -268 -45q-243 0 -397 152t-154 388t156 393t404 157q248 1 398 -147t150 -392v-61
h-473z" />
    <glyph glyph-name="zcaron" 
d="M1069 0h-852v154l633 729h-633v151h846v-153l-631 -729h637v-152zM907 1372l-229 -242h-103l-229 242l82 82l201 -211l196 211z" />
    <glyph glyph-name="Ydieresis" 
d="M727 0h-184v590l-488 862h205l381 -694l379 694h194l-487 -862v-590zM549 1597h-209v209h209v-209zM930 1597h-209v209h209v-209z" />
    <glyph glyph-name="exclamdown" unicode="&#xa1;" 
d="M739 -418h-213v418l45 594h123l45 -594v-418zM774 741h-285v295h285v-295z" />
    <glyph glyph-name="cent" unicode="&#xa2;" 
d="M366 717q0 -326 209 -381v762q-209 -55 -209 -381zM709 -2h-134v176q-188 27 -296 186q-91 132 -91 360t84 353q109 158 303 187v190h134v-188q162 -16 259 -118t109 -261h-180q-23 190 -188 221v-774q164 27 192 221h178q-12 -164 -107 -264t-263 -115v-174z" />
    <glyph glyph-name="sterling" unicode="&#xa3;" 
d="M1182 322q0 -322 -336 -322h-670v162q162 4 162 164v352h-164v149h164v224q0 167 106 285t284 118t286 -105q106 -105 106 -264h-174q0 95 -58 155t-163 60t-158 -68t-53 -181v-224h330v-149h-330v-361q0 -133 -88 -157v-4l426 2q154 0 158 164h172z" />
    <glyph glyph-name="currency" unicode="&#xa4;" 
d="M936 518q0 133 -81 221t-221 88t-217 -85t-77 -217t81 -223t219 -91t217 87t79 220zM639 51q-143 0 -266 84l-142 -160l-133 131l164 140q-88 124 -88 274t88 275l-164 133l135 135l138 -158q119 82 266 82t264 -82l141 160l134 -137l-160 -133q86 -123 86 -275t-86 -274
l160 -140l-132 -131l-143 160q-119 -84 -262 -84z" />
    <glyph glyph-name="yen" unicode="&#xa5;" 
d="M1081 782v-125h-356v-186h356v-125h-356v-346h-182v346h-334v125h334v186h-334v125h248l-365 641h193l356 -632l348 632h189l-367 -641h270z" />
    <glyph glyph-name="brokenbar" unicode="&#xa6;" 
d="M713 -102h-156v630h156v-630zM713 922h-156v632h156v-632z" />
    <glyph glyph-name="section" unicode="&#xa7;" 
d="M858 483l-377 324q-98 -51 -107 -157t72 -175l377 -323q98 51 108 157q9 106 -73 174zM1100 334q0 -86 -51 -159t-125 -118q84 -96 84 -230t-100 -229q-100 -96 -268 -96q-169 0 -268 106t-100 261h170q0 -99 54 -159t142 -60q89 0 144 49q56 49 56 137t-86 162l-414 350
q-133 111 -133 277q0 87 51 159t125 117q-84 96 -84 228q0 131 101 229q100 98 268 98t267 -105t99 -261h-170q0 100 -53 159t-142 59t-145 -48q-56 -50 -55 -138q0 -88 86 -161l414 -351q133 -110 133 -276z" />
    <glyph glyph-name="dieresis" unicode="&#xa8;" 
d="M549 1227h-209v209h209v-209zM930 1227h-209v209h209v-209z" />
    <glyph glyph-name="copyright" unicode="&#xa9;" 
d="M630 422q-118 0 -189 85t-71 216t69 214t187 83t185 -58q68 -58 76 -159h-113q-14 117 -133 117q-82 0 -120 -56t-38 -142q0 -87 38 -143t120 -57q115 0 135 121h113q-8 -101 -75 -161q-66 -60 -184 -60zM1075 725q0 184 -129 315t-311 131t-311 -131t-129 -315t129 -315
t311 -131t311 131t129 315zM1180 725q0 -229 -160 -391t-385 -162t-385 162t-160 391t160 391t385 162t385 -162t160 -391z" />
    <glyph glyph-name="ordfeminine" unicode="&#xaa;" 
d="M786 973v43l-204 -12q-70 -4 -119 -38t-49 -94t37 -99q37 -38 123 -38q86 -1 150 63q62 64 62 175zM911 625q-51 1 -83 33t-35 81q-76 -123 -248 -123q-129 0 -202 73t-73 169t69 170t216 84l231 14v54q0 86 -40 122t-128 35q-88 0 -130 -41t-42 -102h-137q2 129 91 194
t223 64q217 0 280 -154q20 -45 21 -122v-381q0 -49 41 -50l36 5v-105q-39 -20 -90 -20z" />
    <glyph glyph-name="guillemotleft" unicode="&#xab;" 
d="M606 221l-110 -82l-336 471l336 471l108 -77l-227 -392zM1081 221l-110 -82l-336 471l336 471l108 -77l-227 -392z" />
    <glyph glyph-name="logicalnot" unicode="&#xac;" 
d="M1106 203h-160v338h-833v157h993v-495z" />
    <glyph glyph-name="registered" unicode="&#xae;" 
d="M756 844q0 38 -25 62t-72 24h-110v-178h113q94 0 94 92zM551 657v-215h-105v582h222q86 0 140 -50t54 -130q0 -121 -98 -168l102 -234h-112l-92 215h-111zM1075 725q0 184 -129 315t-311 131t-311 -131t-129 -315t129 -315t311 -131t311 131t129 315zM1180 725
q0 -229 -160 -391t-385 -162t-385 162t-160 391t160 391t385 162t385 -162t160 -391z" />
    <glyph glyph-name="macron" unicode="&#xaf;" 
d="M920 1241h-570v143h570v-143z" />
    <glyph glyph-name="degree" unicode="&#xb0;" 
d="M821 1143q0 84 -53 137t-133 53t-132 -53t-52 -137t52 -137q52 -54 132 -54t133 54t53 137zM975 1143q0 -145 -97 -241q-96 -96 -242 -95q-146 0 -243 94q-96 93 -96 241t96 242q95 94 241 94t244 -94q98 -96 97 -241z" />
    <glyph glyph-name="plusminus" unicode="&#xb1;" 
d="M1085 0h-899v141h899v-141zM1085 680h-376v-383h-144v383h-379v143h379v379h144v-379h376v-143z" />
    <glyph glyph-name="twosuperior" unicode="&#xb2;" 
d="M881 805h-478v113l269 225q66 55 65 114q0 23 -12 41q-29 43 -94 43q-111 0 -115 -120h-127q2 109 70 171t171 62t168 -55q64 -55 64 -149t-80 -167q-16 -14 -53 -47l-135 -112h287v-119z" />
    <glyph glyph-name="threesuperior" unicode="&#xb3;" 
d="M864 968q0 -60 -43 -108q-68 -74 -199 -74t-198 80q-53 59 -53 142h123q2 -57 36 -87t88 -30q121 0 121 88q0 96 -112 96h-52v103h50q29 0 47 6q53 14 53 84q0 38 -31 60t-77 22q-47 0 -81 -27t-36 -82h-123q0 93 61 151q62 58 188 58t185 -74q41 -47 41 -102t-26 -96
t-64 -54q46 -14 74 -55t28 -101z" />
    <glyph glyph-name="acute" unicode="&#xb4;" 
d="M868 1362l-393 -240l-74 101l361 288z" />
    <glyph glyph-name="mu" unicode="&#xb5;" 
d="M1049 0h-152l-14 158q-39 -86 -125 -134t-191 -48t-172 53v-439h-174v1446h174v-655q1 -247 211 -247q108 0 188 82q80 83 80 282v538h175v-1036z" />
    <glyph glyph-name="paragraph" unicode="&#xb6;" 
d="M1151 1311h-141v-1567h-148v1567h-229v-1567h-152v936q-161 0 -273 114t-112 274t113 272t272 112h670v-141z" />
    <glyph glyph-name="periodcentered" unicode="&#xb7;" 
d="M786 475h-303v309h303v-309z" />
    <glyph glyph-name="cedilla" unicode="&#xb8;" 
d="M803 -119l-148 -373l-188 84l168 289h168z" />
    <glyph glyph-name="onesuperior" unicode="&#xb9;" 
d="M735 819h-127v484l-157 -109v141l167 117h117v-633z" />
    <glyph glyph-name="ordmasculine" unicode="&#xba;" 
d="M842 1033q0 296 -206 296t-206 -295t205 -297q207 0 207 296zM636 1452q144 0 246 -102t103 -317q0 -214 -111 -324q-94 -95 -238 -95t-248 104t-104 316t104 314q104 104 248 104z" />
    <glyph glyph-name="guillemotright" unicode="&#xbb;" 
d="M635 610l-336 -471l-111 82l230 391l-228 392l109 77zM1110 610l-336 -471l-110 82l229 391l-227 392l108 77z" />
    <glyph glyph-name="onequarter" unicode="&#xbc;" 
d="M1163 131h-102v-129h-123v129h-307v123l250 389h141l-254 -405h170v135h123v-135h102v-107zM1120 1034l-987 -723l-70 101l988 723zM408 819h-127v486l-158 -111v141l170 117h115v-633z" />
    <glyph glyph-name="onehalf" unicode="&#xbd;" 
d="M1151 2h-477v113l268 225q68 57 68 115q0 18 -15 41q-29 43 -94 43q-111 0 -115 -121h-127q2 109 70 171t171 62t169 -55q66 -56 66 -148t-82 -167q-16 -14 -54 -48l-135 -112h287v-119zM1120 1034l-987 -723l-70 101l988 723zM408 819h-127v484l-158 -109v141l168 117
h117v-633z" />
    <glyph glyph-name="threequarters" unicode="&#xbe;" 
d="M1163 129h-102v-129h-123v129h-307v123l248 389h143l-254 -405h170v135h123v-135h102v-107zM1182 1034l-987 -723l-70 101l987 723zM575 968q0 -60 -43 -108q-68 -74 -198 -74t-199 80q-53 59 -53 142h123q4 -117 125 -117t121 88q0 96 -113 96h-51v103h49q29 0 47 6
q53 14 53 84q0 38 -30 60t-77 22q-46 0 -81 -27t-37 -82h-123q0 93 61 151t187 58t186 -74q41 -47 41 -102q1 -55 -25 -96t-65 -54q47 -14 75 -55t27 -101z" />
    <glyph glyph-name="questiondown" unicode="&#xbf;" 
d="M1085 2q1 -186 -121 -318t-320 -132t-322 106q-125 106 -125 283q0 215 221 376q92 68 119 124t26 157v45h168v-51q0 -154 -48 -234t-177 -179t-129 -240q-1 -90 65 -160t190 -70t196 84t73 209h184zM778 762h-268v274h268v-274z" />
    <glyph glyph-name="Agrave" unicode="&#xc0;" 
d="M862 547l-231 719l-225 -719h456zM1223 0h-187l-121 375h-563l-119 -375h-186l477 1452h219zM864 1640l-71 -98l-396 238l109 149z" />
    <glyph glyph-name="Aacute" unicode="&#xc1;" 
d="M862 547l-231 719l-225 -719h456zM1223 0h-187l-121 375h-563l-119 -375h-186l477 1452h219zM868 1780l-393 -240l-74 98l361 291z" />
    <glyph glyph-name="Acircumflex" unicode="&#xc2;" 
d="M862 547l-231 719l-225 -719h456zM1223 0h-187l-121 375h-563l-119 -375h-186l477 1452h219zM967 1632l-101 -90l-231 248l-232 -248l-100 90l272 291h119z" />
    <glyph glyph-name="Atilde" unicode="&#xc3;" 
d="M862 547l-231 719l-225 -719h456zM1223 0h-187l-121 375h-563l-119 -375h-186l477 1452h219zM770 1577q-76 0 -154 44t-114 44t-64 -11q-27 -11 -71 -57l-88 101q73 72 121 94t107 23q59 -1 143 -47t131 -46q48 0 122 72l88 -102q-115 -115 -221 -115z" />
    <glyph glyph-name="Adieresis" unicode="&#xc4;" 
d="M862 547l-231 719l-225 -719h456zM1223 0h-187l-121 375h-563l-119 -375h-186l477 1452h219zM539 1595h-209v209h209v-209zM920 1595h-209v209h209v-209z" />
    <glyph glyph-name="Aring" unicode="&#xc5;" 
d="M862 547l-231 719l-225 -719h456zM756 1577q0 53 -34 90t-89 37t-89 -37t-34 -90t34 -89t89 -36t89 36t34 89zM385 1577q0 98 68 170q69 72 181 72t180 -72t69 -170q0 -133 -113 -205l453 -1372h-187l-121 375h-563l-119 -375h-186l451 1372q-113 68 -113 205z" />
    <glyph glyph-name="AE" unicode="&#xc6;" 
d="M580 1292h-70l-223 -735h293v735zM580 0v387h-344l-117 -387h-182l450 1452h846v-166h-473v-446h321v-166h-321v-508h473v-166h-653z" />
    <glyph glyph-name="Ccedilla" unicode="&#xc7;" 
d="M786 -123l-147 -375l-188 86l167 289h168zM661 1479q213 1 363 -135t158 -347h-191q-6 123 -84 205q-94 104 -239 104t-252 -110q-55 -57 -83 -147q-28 -89 -32 -151t-4 -173t4 -172t32 -151t83 -148q106 -111 246 -111t235 90q96 90 98 230h189q-8 -211 -159 -351
t-365 -140t-373 155q-111 109 -145 252t-33 346q0 203 33 346q34 143 145 252q160 156 374 156z" />
    <glyph glyph-name="Egrave" unicode="&#xc8;" 
d="M1165 0h-960v1452h960v-168h-778v-442h588v-172h-588v-502h778v-168zM911 1651l-73 -99l-394 238l107 149z" />
    <glyph glyph-name="Eacute" unicode="&#xc9;" 
d="M1165 0h-960v1452h960v-168h-778v-442h588v-172h-588v-502h778v-168zM926 1780l-394 -240l-73 98l360 291z" />
    <glyph glyph-name="Ecircumflex" unicode="&#xca;" 
d="M1165 0h-960v1452h960v-168h-778v-442h588v-172h-588v-502h778v-168zM1026 1645l-100 -91l-232 246l-231 -246l-101 91l273 288h119z" />
    <glyph glyph-name="Edieresis" unicode="&#xcb;" 
d="M1165 0h-960v1452h960v-168h-778v-442h588v-172h-588v-502h778v-168zM608 1599h-209v209h209v-209zM989 1599h-209v209h209v-209z" />
    <glyph glyph-name="Igrave" unicode="&#xcc;" 
d="M1049 0h-828v152h322v1151h-322v149h828v-149h-322v-1151h322v-152zM844 1640l-74 -98l-393 238l106 149z" />
    <glyph glyph-name="Iacute" unicode="&#xcd;" 
d="M1049 0h-828v152h322v1151h-322v149h828v-149h-322v-1151h322v-152zM850 1780l-393 -240l-74 98l360 291z" />
    <glyph glyph-name="Icircumflex" unicode="&#xce;" 
d="M1049 0h-828v152h322v1151h-322v149h828v-149h-322v-1151h322v-152zM967 1634l-101 -90l-231 246l-232 -246l-100 90l272 289h119z" />
    <glyph glyph-name="Idieresis" unicode="&#xcf;" 
d="M1049 0h-828v152h322v1151h-322v149h828v-149h-322v-1151h322v-152zM549 1597h-209v209h209v-209zM930 1597h-209v209h209v-209z" />
    <glyph glyph-name="Eth" unicode="&#xd0;" 
d="M999 730q0 171 -20 280t-88 178q-92 96 -268 96h-250v-463h313v-135h-313v-518h250q178 0 274 102q66 70 84 180t18 280zM1186 724q0 -345 -101 -505q-135 -219 -462 -219h-433v686h-135v135h135v631h433q326 0 464 -225q99 -158 99 -503z" />
    <glyph glyph-name="Ntilde" unicode="&#xd1;" 
d="M1126 0h-223l-581 1167v-1167h-179v1452h228l579 -1173v1173h176v-1452zM770 1577q-72 0 -152 45t-116 45t-62 -10q-25 -10 -73 -60l-88 103q71 72 119 94t110 21q62 0 144 -45q82 -46 130 -46q49 0 121 70l88 -100q-117 -117 -221 -117z" />
    <glyph glyph-name="Ograve" unicode="&#xd2;" 
d="M636 1305q-146 0 -253 -111q-86 -86 -100 -217q-15 -131 -15 -234q0 -281 47 -389q25 -55 68 -98q105 -111 251 -111t253 111q84 84 99 211t15 258q0 130 -15 257q-15 126 -99 212q-105 111 -251 111zM1190 725q0 -207 -34 -349t-142 -247q-162 -158 -379 -158t-379 158
q-108 105 -142 247t-34 349t34 349t142 247q162 158 379 158t379 -158q108 -105 142 -247t34 -349zM850 1651l-72 -99l-395 238l109 149z" />
    <glyph glyph-name="Oacute" unicode="&#xd3;" 
d="M636 1305q-146 0 -253 -111q-86 -86 -100 -217q-15 -131 -15 -234q0 -281 47 -389q25 -55 68 -98q105 -111 251 -111t253 111q84 84 99 211t15 258q0 130 -15 257q-15 126 -99 212q-105 111 -251 111zM1190 725q0 -207 -34 -349t-142 -247q-162 -158 -379 -158t-379 158
q-108 105 -142 247t-34 349t34 349t142 247q162 158 379 158t379 -158q108 -105 142 -247t34 -349zM874 1790l-395 -240l-71 99l358 290z" />
    <glyph glyph-name="Ocircumflex" unicode="&#xd4;" 
d="M636 1305q-146 0 -253 -111q-86 -86 -100 -217q-15 -131 -15 -234q0 -281 47 -389q25 -55 68 -98q105 -111 251 -111t253 111q84 84 99 211t15 258q0 130 -15 257q-15 126 -99 212q-105 111 -251 111zM1190 725q0 -207 -34 -349t-142 -247q-162 -158 -379 -158t-379 158
q-108 105 -142 247t-34 349t34 349t142 247q162 158 379 158t379 -158q108 -105 142 -247t34 -349zM967 1632l-101 -90l-231 248l-232 -248l-100 90l272 291h119z" />
    <glyph glyph-name="Otilde" unicode="&#xd5;" 
d="M636 1305q-146 0 -253 -111q-86 -86 -100 -217q-15 -131 -15 -234q0 -281 47 -389q25 -55 68 -98q105 -111 251 -111t253 111q84 84 99 211t15 258q0 130 -15 257q-15 126 -99 212q-105 111 -251 111zM1190 725q0 -207 -34 -349t-142 -247q-162 -158 -379 -158t-379 158
q-108 105 -142 247t-34 349t34 349t142 247q162 158 379 158t379 -158q108 -105 142 -247t34 -349zM770 1577q-76 0 -154 44t-114 44t-64 -11q-27 -11 -71 -57l-88 101q73 72 121 94t107 23q59 -1 143 -47t131 -46q48 0 122 72l88 -102q-115 -115 -221 -115z" />
    <glyph glyph-name="Odieresis" unicode="&#xd6;" 
d="M636 1305q-146 0 -253 -111q-86 -86 -100 -217q-15 -131 -15 -234q0 -281 47 -389q25 -55 68 -98q105 -111 251 -111t253 111q84 84 99 211t15 258q0 130 -15 257q-15 126 -99 212q-105 111 -251 111zM1190 725q0 -207 -34 -349t-142 -247q-162 -158 -379 -158t-379 158
q-108 105 -142 247t-34 349t34 349t142 247q162 158 379 158t379 -158q108 -105 142 -247t34 -349zM549 1599h-209v209h209v-209zM930 1599h-209v209h209v-209z" />
    <glyph glyph-name="multiply" unicode="&#xd7;" 
d="M1200 156l-110 -111l-455 455l-455 -455l-110 111l454 454l-454 455l110 111l453 -455l457 455l110 -111l-457 -455z" />
    <glyph glyph-name="Oslash" unicode="&#xd8;" 
d="M620 1305q-130 0 -237 -111q-86 -86 -100 -217q-15 -131 -15 -234q0 -281 47 -389q25 -55 72 -102q422 924 451 985q-88 68 -218 68zM635 145q145 0 252 111q84 84 99 211t15 243q0 115 -1 160t-18 129t-52 140q-199 -440 -438 -963q66 -31 143 -31zM1190 725
q0 -207 -34 -349t-142 -247q-162 -158 -379 -158q-111 0 -217 45l-72 -157l-115 53l78 170q-156 123 -195 294q-34 142 -34 349t34 349t142 247q162 158 379 158q152 0 276 -78q31 70 78 172l113 -51q-6 -12 -90 -199q112 -112 145 -252q33 -139 33 -346z" />
    <glyph glyph-name="Ugrave" unicode="&#xd9;" 
d="M1145 553q0 -272 -133 -426t-377 -154t-377 154t-133 426v899h182v-901q0 -406 328 -406t328 406v901h182v-899zM850 1640l-74 -98l-393 238l106 149z" />
    <glyph glyph-name="Uacute" unicode="&#xda;" 
d="M1145 553q0 -272 -133 -426t-377 -154t-377 154t-133 426v899h182v-901q0 -406 328 -406t328 406v901h182v-899zM883 1780l-394 -240l-73 98l360 291z" />
    <glyph glyph-name="Ucircumflex" unicode="&#xdb;" 
d="M1145 553q0 -272 -133 -426t-377 -154t-377 154t-133 426v899h182v-901q0 -406 328 -406t328 406v901h182v-899zM967 1632l-101 -90l-231 248l-232 -248l-100 90l272 291h119z" />
    <glyph glyph-name="Udieresis" unicode="&#xdc;" 
d="M1143 528q0 -254 -130 -404t-379 -151q-249 0 -379 152t-130 403v924h182v-926q0 -381 328 -381q170 1 248 103t78 278v926h182v-924zM549 1597h-209v209h209v-209zM930 1597h-209v209h209v-209z" />
    <glyph glyph-name="Yacute" unicode="&#xdd;" 
d="M727 0h-184v590l-498 862h205l391 -694l389 694h195l-498 -862v-590zM887 1735l-381 -201l-60 98l349 252z" />
    <glyph glyph-name="Thorn" unicode="&#xde;" 
d="M1020 743q0 272 -293 273h-311v-557h313q155 -1 223 69t68 215zM731 1182q245 0 361 -126t116 -324t-121 -318t-354 -121h-317v-293h-185v1454h185v-272h315z" />
    <glyph glyph-name="germandbls" unicode="&#xdf;" 
d="M1180 426q0 -203 -127 -321t-328 -117q-98 0 -172 16v146q57 -10 137 -11q139 0 224 72q85 71 85 221t-89 222t-238 71h-58v152h58q96 1 164 71t67 174q0 104 -60 166t-179 64q-120 0 -178 -87t-58 -235v-1030h-176v881h-174v155h176q0 217 111 340t302 123t303 -104
t111 -273q0 -114 -61 -200t-162 -113q142 -18 232 -128t90 -255z" />
    <glyph glyph-name="agrave" unicode="&#xe0;" 
d="M864 438v62l-286 -17q-92 -6 -161 -51t-69 -128t51 -133t171 -50t207 89t87 228zM528 -27q-176 -1 -267 95t-91 216t81 221q81 102 290 111l323 19v76q0 106 -55 157q-55 52 -180 52t-181 -56t-57 -129h-170q2 127 90 217q104 111 326 111q143 0 236 -54
q165 -96 163 -304v-502q0 -70 62 -70l45 6v-129q-49 -24 -116 -24t-109 45t-44 112h-4q-45 -78 -138 -124t-204 -46zM870 1229l-73 -99l-394 240l107 150z" />
    <glyph glyph-name="aacute" unicode="&#xe1;" 
d="M864 438v62l-286 -17q-92 -6 -161 -51t-69 -128t51 -133t171 -50t207 89t87 228zM528 -27q-176 -1 -267 95t-91 216t81 221q81 102 290 111l323 19v76q0 106 -55 157q-55 52 -180 52t-181 -56t-57 -129h-170q2 127 90 217q104 111 326 111q143 0 236 -54
q165 -96 163 -304v-502q0 -70 62 -70l45 6v-129q-49 -24 -116 -24t-109 45t-44 112h-4q-45 -78 -138 -124t-204 -46zM868 1370l-393 -240l-74 99l361 291z" />
    <glyph glyph-name="acircumflex" unicode="&#xe2;" 
d="M864 438v62l-286 -17q-92 -6 -161 -51t-69 -128t51 -133t171 -50t207 89t87 228zM528 -27q-176 -1 -267 95t-91 216t81 221q81 102 290 111l323 19v76q0 106 -55 157q-55 52 -180 52t-181 -56t-57 -129h-170q2 127 90 217q104 111 326 111q143 0 236 -54
q165 -96 163 -304v-502q0 -70 62 -70l45 6v-129q-49 -24 -116 -24t-109 45t-44 112h-4q-45 -78 -138 -124t-204 -46zM965 1221l-101 -88l-231 245l-232 -245l-102 88l274 290h117z" />
    <glyph glyph-name="atilde" unicode="&#xe3;" 
d="M864 438v62l-286 -17q-92 -6 -161 -51t-69 -128t51 -133t171 -50t207 89t87 228zM528 -27q-176 -1 -267 95t-91 216t81 221q81 102 290 111l323 19v76q0 106 -55 157q-55 52 -180 52t-181 -56t-57 -129h-170q2 127 90 217q104 111 326 111q143 0 236 -54
q165 -96 163 -304v-502q0 -70 62 -70l45 6v-129q-49 -24 -116 -24t-109 45t-44 112h-4q-45 -78 -138 -124t-204 -46zM786 1208q-90 0 -168 44t-114 44t-62 -11t-71 -56l-88 100q75 73 121 95t105 22t141 -45t132 -45q51 0 123 69l88 -100q-117 -117 -207 -117z" />
    <glyph glyph-name="adieresis" unicode="&#xe4;" 
d="M864 438v62l-286 -17q-92 -6 -161 -51t-69 -128t51 -133t171 -50t207 89t87 228zM528 -27q-176 -1 -267 95t-91 216t81 221q81 102 290 111l323 19v76q0 106 -55 157q-55 52 -180 52t-181 -56t-57 -129h-170q2 127 90 217q104 111 326 111q143 0 236 -54
q165 -96 163 -304v-502q0 -70 62 -70l45 6v-129q-49 -24 -116 -24t-109 45t-44 112h-4q-45 -78 -138 -124t-204 -46zM553 1206h-209v209h209v-209zM934 1206h-209v209h209v-209z" />
    <glyph glyph-name="aring" unicode="&#xe5;" 
d="M864 438v62l-286 -17q-92 -6 -161 -51t-69 -128t51 -133t171 -50t207 89t87 228zM528 -27q-176 -1 -267 95t-91 216t81 221q81 102 290 111l323 19v76q0 106 -55 157q-55 52 -180 52t-181 -56t-57 -129h-170q2 127 90 217q104 111 326 111q143 0 236 -54
q165 -96 163 -304v-502q0 -70 62 -70l45 6v-129q-49 -24 -116 -24t-109 45t-44 112h-4q-45 -78 -138 -124t-204 -46zM750 1374q0 47 -31 81t-80 34t-81 -34t-32 -81t32 -80q32 -32 81 -32t80 32t31 80zM864 1374q0 -88 -61 -154t-163 -65q-102 0 -165 66q-61 65 -61 153
t61 154t163 66t165 -66q61 -66 61 -154z" />
    <glyph glyph-name="ae" unicode="&#xe6;" 
d="M559 467h-98q-91 0 -145 -48t-54 -128t55 -124t144 -44h98v344zM727 606h295q-2 127 -86 214t-209 93v-307zM727 463v-332q94 2 171 46t101 132h166q-37 -203 -254 -291q-96 -41 -276 -41h-174q-86 0 -166 30t-125 81q-76 82 -76 203t78 205q49 50 126 80t151 30h110v318
q-105 0 -169 -56t-71 -131h-165q6 117 100 207q123 119 388 119q264 0 410 -143t146 -402v-55h-471z" />
    <glyph glyph-name="ccedilla" unicode="&#xe7;" 
d="M651 1063q190 0 308 -114t128 -263h-176q-10 88 -81 157q-72 69 -180 69t-189 -74q-113 -102 -113 -318t113 -319q84 -76 191 -76t177 65q74 74 84 160h174q-10 -150 -128 -264q-119 -114 -309 -113q-190 0 -320 127q-160 158 -160 418t160 418q131 127 321 127z
M760 -123l-148 -375l-188 84l168 291h168z" />
    <glyph glyph-name="egrave" unicode="&#xe8;" 
d="M633 913q-127 0 -206 -99t-83 -208h584q-4 135 -86 221t-209 86zM1112 463h-774q0 -162 104 -260q82 -78 197 -78t185 55t94 131h167q-37 -158 -157 -248t-298 -90q-177 0 -324 144q-146 143 -146 399t153 414q133 133 329 133t321 -125q150 -154 149 -414v-61zM889 1233
l-74 -100l-393 239l106 150z" />
    <glyph glyph-name="eacute" unicode="&#xe9;" 
d="M633 913q-127 0 -206 -99t-83 -208h584q-4 135 -86 221t-209 86zM1112 463h-774q0 -162 104 -260q82 -78 197 -78t185 55t94 131h167q-37 -158 -157 -248t-298 -90q-177 0 -324 144q-146 143 -146 399t153 414q133 133 329 133t321 -125q150 -154 149 -414v-61zM891 1366
l-393 -240l-72 101l358 289z" />
    <glyph glyph-name="ecircumflex" unicode="&#xea;" 
d="M633 913q-127 0 -206 -99t-83 -208h584q-4 135 -86 221t-209 86zM1112 463h-774q0 -162 104 -260q82 -78 197 -78t185 55t94 131h167q-37 -158 -157 -248t-298 -90q-177 0 -324 144q-146 143 -146 399t153 414q133 133 329 133t321 -125q150 -154 149 -414v-61zM981 1221
l-102 -88l-232 245l-231 -245l-101 88l275 290h117z" />
    <glyph glyph-name="edieresis" unicode="&#xeb;" 
d="M633 913q-127 0 -206 -99t-83 -208h584q-4 135 -86 221t-209 86zM1112 463h-774q0 -162 104 -260q82 -78 197 -78t185 55t94 131h167q-37 -158 -157 -248t-298 -90q-177 0 -324 144q-146 143 -146 399t153 414q133 133 329 133t321 -125q150 -154 149 -414v-61zM547 1206
h-209v209h209v-209zM928 1206h-209v209h209v-209z" />
    <glyph glyph-name="igrave" unicode="&#xec;" 
d="M1153 0h-924v150h373v739h-332v147h508v-886h375v-150zM819 1221l-71 -101l-394 240l107 149z" />
    <glyph glyph-name="iacute" unicode="&#xed;" 
d="M1153 0h-924v150h373v739h-332v147h508v-886h375v-150zM881 1362l-394 -240l-71 101l358 288z" />
    <glyph glyph-name="icircumflex" unicode="&#xee;" 
d="M1153 0h-924v150h373v739h-332v147h508v-886h375v-150zM1008 1221l-101 -88l-231 245l-232 -245l-102 88l274 290h117z" />
    <glyph glyph-name="idieresis" unicode="&#xef;" 
d="M1153 0h-924v150h373v739h-332v147h508v-886h375v-150zM588 1227h-209v209h209v-209zM969 1227h-209v209h209v-209z" />
    <glyph glyph-name="eth" unicode="&#xf0;" 
d="M924 518q0 225 -95 322q-73 74 -185 74t-185 -74q-94 -96 -94 -322t94 -321q73 -74 185 -74t185 74q95 96 95 321zM1098 518q0 -287 -132 -416t-322 -129q-189 0 -321 129t-133 416q0 287 132 416t321 129l88 -8l-88 149h-246v121h174l-92 154h183l90 -154h200v-121h-129
l170 -291q105 -176 105 -395z" />
    <glyph glyph-name="ntilde" unicode="&#xf1;" 
d="M1079 0h-178v657q0 248 -233 248q-150 0 -232 -176q-40 -86 -41 -256v-473h-176v1036h154l14 -155q37 84 133 133t191 49q176 0 272 -100t96 -281v-682zM793 1208q-76 0 -154 44t-115 44q-38 0 -64 -11t-71 -56l-88 100q74 73 121 95q46 22 106 22t142 -45t133 -45
t123 69l88 -100q-117 -117 -221 -117z" />
    <glyph glyph-name="ograve" unicode="&#xf2;" 
d="M944 518q0 213 -117 320q-83 74 -193 74t-192 -74q-116 -106 -116 -320t116 -319q82 -74 193 -74t192 74q117 106 117 319zM1122 518q0 -260 -161 -420q-129 -125 -326 -125t-326 125q-162 160 -162 420t162 420q129 125 326 125t326 -125q161 -160 161 -420zM862 1229
l-74 -99l-393 240l107 150z" />
    <glyph glyph-name="oacute" unicode="&#xf3;" 
d="M944 518q0 213 -117 320q-83 74 -193 74t-192 -74q-116 -106 -116 -320t116 -319q82 -74 193 -74t192 74q117 106 117 319zM1122 518q0 -260 -161 -420q-129 -125 -326 -125t-326 125q-162 160 -162 420t162 420q129 125 326 125t326 -125q161 -160 161 -420zM868 1368
l-393 -240l-74 101l361 289z" />
    <glyph glyph-name="ocircumflex" unicode="&#xf4;" 
d="M944 518q0 213 -117 320q-83 74 -193 74t-192 -74q-116 -106 -116 -320t116 -319q82 -74 193 -74t192 74q117 106 117 319zM1122 518q0 -260 -161 -420q-129 -125 -326 -125t-326 125q-162 160 -162 420t162 420q129 125 326 125t326 -125q161 -160 161 -420zM967 1221
l-101 -88l-231 245l-232 -245l-100 88l272 290h119z" />
    <glyph glyph-name="otilde" unicode="&#xf5;" 
d="M944 518q0 213 -117 320q-83 74 -193 74t-192 -74q-116 -106 -116 -320t116 -319q82 -74 193 -74t192 74q117 106 117 319zM1122 518q0 -260 -161 -420q-129 -125 -326 -125t-326 125q-162 160 -162 420t162 420q129 125 326 125t326 -125q161 -160 161 -420zM487 1309
q-53 0 -120 -68l-88 102q71 72 119 94q112 52 249 -24q82 -45 133 -45t123 70l88 -101q-117 -117 -221 -116q-72 0 -151 44t-132 44z" />
    <glyph glyph-name="odieresis" unicode="&#xf6;" 
d="M944 518q0 213 -117 320q-83 74 -193 74t-192 -74q-116 -106 -116 -320t116 -319q82 -74 193 -74t192 74q117 106 117 319zM1122 518q0 -260 -161 -420q-129 -125 -326 -125t-326 125q-162 160 -162 420t162 420q129 125 326 125t326 -125q161 -160 161 -420zM547 1206
h-209v209h209v-209zM928 1206h-209v209h209v-209z" />
    <glyph glyph-name="divide" unicode="&#xf7;" 
d="M752 98h-242v250h242v-250zM1149 535h-1028v159h1028v-159zM752 897h-242v250h242v-250z" />
    <glyph glyph-name="oslash" unicode="&#xf8;" 
d="M626 911q-102 0 -184 -73q-117 -106 -116 -318q0 -162 69 -268l402 610q-69 49 -171 49zM944 518q0 145 -55 242l-393 -598q58 -37 154 -37t177 74q117 106 117 319zM1122 507q0 -249 -161 -409q-129 -125 -324 -125q-125 0 -229 56l-99 -150l-110 74l102 153
q-154 160 -154 416t162 416q129 125 328 125q135 0 250 -68l100 154l109 -74l-109 -166q135 -153 135 -402z" />
    <glyph glyph-name="ugrave" unicode="&#xf9;" 
d="M1055 0h-154l-14 156q-37 -84 -130 -133t-188 -50q-164 1 -264 105t-100 276v682h176v-657q0 -248 229 -248q111 0 190 87t79 216v602h176v-1036zM852 1227l-72 -101l-395 240l109 150z" />
    <glyph glyph-name="uacute" unicode="&#xfa;" 
d="M1055 0h-154l-14 156q-37 -84 -130 -133t-188 -50q-164 1 -264 105t-100 276v682h176v-657q0 -248 229 -248q111 0 190 87t79 216v602h176v-1036zM854 1366l-393 -240l-74 101l361 289z" />
    <glyph glyph-name="ucircumflex" unicode="&#xfb;" 
d="M1055 0h-154l-14 156q-37 -84 -130 -133t-188 -50q-164 1 -264 105t-100 276v682h176v-657q0 -248 229 -248q111 0 190 87t79 216v602h176v-1036zM961 1221l-103 -88l-231 245l-232 -245l-100 88l274 290h117z" />
    <glyph glyph-name="udieresis" unicode="&#xfc;" 
d="M1055 0h-154l-14 156q-37 -84 -130 -133t-188 -50q-164 1 -264 105t-100 276v682h176v-657q0 -248 229 -248q111 0 190 87t79 216v602h176v-1036zM547 1206h-209v209h209v-209zM928 1206h-209v209h209v-209z" />
    <glyph glyph-name="yacute" unicode="&#xfd;" 
d="M380 -436q-114 0 -177 37v149q78 -29 145 -29q109 0 150 105l69 174l-452 1034h215l334 -821l309 821h198l-507 -1247q-46 -111 -108 -167t-176 -56zM862 1339l-383 -213l-65 97l352 264z" />
    <glyph glyph-name="thorn" unicode="&#xfe;" 
d="M965 518q0 158 -64 269q-74 129 -244 129q-91 0 -168 -68q-117 -102 -117 -330t117 -330q75 -68 167 -68q237 1 293 255q16 67 16 143zM1143 524q0 -282 -152 -438q-109 -113 -299 -113q-90 0 -177 39t-132 109v-565h-174v1923h174v-564q39 68 129 108t180 40
q180 0 291 -105q160 -152 160 -434z" />
    <glyph glyph-name="ydieresis" unicode="&#xff;" 
d="M376 -436q-110 0 -181 20v150q78 -12 145 -13q109 0 149 105l70 174l-453 1034h216l333 -821l310 821h198l-508 -1247q-45 -111 -107 -167t-172 -56zM551 1206h-209v209h209v-209zM932 1206h-209v209h209v-209z" />
    <glyph glyph-name="Lslash" 
d="M1202 0h-880v606l-134 -82l-67 107l201 125v696h182v-584l260 162l67 -108l-327 -203v-549h698v-170z" />
    <glyph glyph-name="lslash" 
d="M1122 0h-909v150h365v571l-146 -90l-67 106l213 133v461h-324v148h500v-500l133 84l67 -109l-200 -125v-679h368v-150z" />
    <glyph glyph-name="minus" 
d="M1163 537h-1054v161h1054v-161z" />
    <glyph glyph-name="notequal" 
d="M1128 276h-593l-170 -243l-117 90l106 153h-213v162h326l184 262h-510v162h623l160 230l118 -91l-98 -139h184v-162h-297l-184 -262h481v-162z" />
    <glyph glyph-name="infinity" 
d="M821 156v516h-258q-129 0 -215 -76t-86 -182t57 -170q80 -88 228 -88h274zM1223 672h-228v-516h226v-156h-678q-221 0 -342 117t-121 293q0 108 68 200t171 135q-94 41 -154 126t-61 190q0 177 119 285t314 108q102 0 176 -18v-158q-65 14 -173 14t-178 -64t-70 -170
t70 -169q68 -63 189 -64h270v236h174v-236h228v-153z" />
    <glyph glyph-name="lessequal" 
d="M1241 549h-938l354 -354l-106 -109l-541 537l543 540l109 -104l-359 -359h938v-151z" />
    <glyph glyph-name="greaterequal" 
d="M29 549v151h938l-359 359l109 104l543 -540l-541 -537l-107 109l355 354h-938z" />
    <glyph glyph-name="partialdiff" 
d="M213 625l676 391v-780z" />
    <glyph glyph-name="summation" 
d="M1057 625l-676 -389v780z" />
    <glyph glyph-name="product" 
d="M193 -549q1 -15 -13 -29t-30 -14t-30 13q-31 31 0 59q14 12 30 12t30 -12t13 -29zM193 -33q1 -16 -13 -29q-30 -29 -60 0q-13 13 -14 29q0 15 14 29t30 14t30 -14t13 -29zM514 -285q0 -16 -13 -29q-30 -30 -60 0q-13 13 -13 29q0 15 13 29t29 14t31 -13q13 -14 13 -30z
M838 -549q0 -15 -14 -29t-29 -14q-16 0 -30 13q-13 13 -13 29t13 30q13 12 29 12t30 -12t14 -29zM190 483q0 -16 -13 -29q-31 -31 -59 0q-13 13 -14 29q0 17 14 29t29 12q16 0 30 -12q13 -13 13 -29zM514 231q0 -16 -13 -29q-31 -31 -59 0q-12 13 -12 29q0 15 12 29t28 14
t31 -13q13 -14 13 -30zM838 -33q0 -16 -14 -29q-30 -29 -59 0q-13 13 -13 29q0 15 13 29t29 14t30 -14t14 -29zM1159 -285q0 -16 -13 -29q-30 -30 -60 0q-13 13 -13 29q0 15 13 29q14 14 30 14t30 -13q13 -14 13 -30zM197 995q1 -16 -13 -29q-30 -29 -60 0q-13 13 -13 29
q0 15 13 29q14 14 30 14t30 -14t13 -29zM512 748q0 -16 -13 -30t-29 -13q-16 0 -31 13q-13 14 -13 30t13 28t29 12t30 -12t14 -28zM836 483q0 -16 -14 -29q-30 -29 -59 0q-13 13 -13 29q0 17 13 29t29 12t30 -12t14 -29zM1159 231q0 -16 -13 -29q-30 -30 -60 0
q-13 13 -13 29q0 15 13 29q14 14 30 14t30 -13q13 -14 13 -30zM199 1509q1 -16 -13 -28q-30 -27 -60 0q-13 12 -13 28q0 15 13 29q14 14 30 14t30 -14t13 -29zM518 1260q0 -16 -13 -30t-29 -13q-16 0 -31 13q-13 14 -13 30t13 29q30 30 60 0q13 -13 13 -29zM840 995
q0 -16 -12 -29q-29 -30 -59 0q-13 13 -13 29q0 15 13 29t29 14t30 -14q12 -14 12 -29zM1157 748q0 -16 -13 -30q-14 -14 -30 -13q-16 0 -30 13q-13 14 -13 30t13 28q14 12 30 12t30 -12t13 -28zM520 1776q0 -16 -13 -30t-29 -13q-16 0 -31 13q-13 14 -13 30t13 28
q30 28 60 0q13 -12 13 -28zM844 1509q0 -16 -14 -28q-30 -27 -59 0q-13 12 -13 28q0 15 13 29t29 14t30 -14t14 -29zM1161 1260q0 -16 -12 -30q-13 -14 -29 -13q-16 0 -29 13q-31 31 0 60q30 29 58 -1q12 -13 12 -29zM1165 1776q0 -16 -13 -30q-14 -14 -30 -13q-16 0 -29 13
q-13 14 -13 30t12 28q30 27 60 0q13 -12 13 -28z" />
    <glyph glyph-name="pi" 
d="M795 242v655h-342v-899h-172v899h-160v139h1005v-139h-157v-635q0 -127 94 -127q68 0 92 10v-137q-57 -23 -137 -22q-115 0 -169 74t-54 182z" />
    <glyph glyph-name="integral" 
d="M217 1452h766v-152h-506l664 -663l-107 -107l-663 664v-502l-154 -2v762z" />
    <glyph glyph-name="Omega" 
d="M774 821q0 92 -127 92h-86v-190h86q71 -1 99 23t28 75zM670 1010q94 0 152 -52t57 -141q-1 -88 -59 -138t-150 -50h-107v-203h-104v584h211zM1079 723q0 186 -130 318q-130 133 -314 133t-314 -132q-131 -132 -131 -319t130 -319t315 -132q184 0 314 132t130 319z
M1184 723q0 -231 -161 -394t-388 -163t-388 163t-161 394t161 394t388 163t388 -163t161 -394z" />
    <glyph glyph-name="radical" 
d="M1399 1569h-225l-531 -1585h-158l-366 1048h186l260 -788l471 1460h363v-135z" />
    <glyph glyph-name="approxequal" 
d="M846 217q-88 0 -223 59q-135 60 -197 60t-104 -24q-43 -24 -97 -74l-108 110q81 80 151 120t159 40t226 -57t193 -57t101 22q44 23 95 73l111 -112q-84 -82 -152 -121q-67 -39 -155 -39zM848 606q-86 0 -221 60t-199 59q-64 0 -106 -24q-43 -24 -97 -74l-108 112
q81 80 151 120t156 40t224 -57q138 -58 196 -58t103 23q44 23 95 74l111 -115q-84 -82 -152 -121q-67 -39 -153 -39z" />
    <glyph glyph-name="Delta" 
d="M287 1300v152h766v-762l-154 2v502l-663 -664l-107 107l664 663h-506z" />
    <glyph glyph-name="uni00A0" 
 />
    <glyph glyph-name="lozenge" 
d="M928 713q0 311 -48 417q-77 164 -246 163t-244 -163q-48 -102 -48 -418t48 -417q77 -162 245 -162t245 162q33 70 46 267q2 47 2 151zM1110 713q0 -229 -34 -373t-134 -246q-121 -121 -307 -121q-187 -1 -297 111t-144 256t-34 372q0 230 34 374t144 255t297 111
t297 -110t144 -256q34 -144 34 -373z" />
    <glyph glyph-name="fraction" 
d="M1194 1403l-1063 -1454l-119 92l1061 1452z" />
    <glyph glyph-name="fi" 
d="M1042 0h-174v889h-389v-889h-176v889h-194v147h194v140q0 121 84 210q105 113 279 113t278 -100q90 -90 90 -215h-178q0 53 -35 98q-49 64 -149 64t-146 -52t-47 -131v-127h563v-1036z" />
    <glyph glyph-name="fl" 
d="M1024 0h-176v1321h-186q-96 0 -146 -53t-51 -138v-94h227v-147h-227v-889h-176v889h-209v147h209v107q0 127 92 231t281 105h362v-1479z" />
    <glyph glyph-name="apple" 
d="M337 766q-57 0 -103 -43t-46 -105t45 -103q45 -42 109 -42q86 0 209 145q-63 76 -111 112t-103 36zM1079 619q0 63 -43 105t-104 42q-88 0 -213 -148q123 -145 213 -145q61 0 104 42t43 104zM1227 621q0 -121 -82 -202t-209 -81q-82 0 -149 41t-150 125
q-75 -88 -145 -128t-154 -40q-127 0 -211 83t-84 203t84 202t221 83q137 0 287 -172q75 88 145 130t156 42q127 -1 209 -83t82 -203z" />
    <glyph glyph-name="dotlessi" 
d="M1153 0h-924v150h373v739h-332v147h508v-886h375v-150z" />
    <glyph glyph-name="breve" 
d="M635 1145q-158 0 -245 91t-99 234h143q23 -190 201 -190t201 190h143q-12 -143 -99 -234t-245 -91z" />
    <glyph glyph-name="dotaccent" 
d="M758 1233h-246v246h246v-246z" />
    <glyph glyph-name="ring" 
d="M748 1372q0 47 -32 81t-81 34t-81 -34t-32 -81t32 -80q32 -32 81 -32t81 32t32 80zM850 1371q0 -91 -62 -149t-153 -58t-153 58t-62 149t59 151t155 59q96 0 157 -59q59 -60 59 -151z" />
    <glyph glyph-name="hungarumlaut" 
d="M649 1362l-393 -240l-74 101l361 288zM1087 1362l-395 -240l-71 101l358 288z" />
    <glyph glyph-name="ogonek" 
d="M803 -379l-189 -86l-147 375h168z" />
    <glyph glyph-name="caron" 
d="M977 1835l-283 -299h-119l-282 299l104 92l238 -254l237 254z" />
  </font>
</defs>
</svg>
